<svg version="1.2" baseProfile="tiny" id="EdgeSVG_rmoKq" x="0px" y="0px" width="101.44px" height="58.583px" viewBox="0 0 101.44 58.583" xmlns:xlink="http://www.w3.org/1999/xlink" xmlns="http://www.w3.org/2000/svg">
  <linearGradient id="SVGID_1_" gradientUnits="userSpaceOnUse" x1="0" y1="29.2915" x2="101.4399" y2="29.2915">
    <stop offset="0" style="stop-color:#000000;stop-opacity:0.5"/>
    <stop offset="1" style="stop-color:#000000;stop-opacity:0.5"/>
  </linearGradient>
  <path fill="url(#SVGID_1_)" d="M2.72,58.583c-1.5,0-2.72-1.22-2.72-2.72V2.72C0,1.22,1.22,0,2.72,0h96c1.5,0,2.72,1.22,2.72,2.72&#xD;&#xA;&#x9;v53.143c0,1.5-1.22,2.72-2.72,2.72H2.72z"/>
  <path fill="#003876" d="M98.22,57.863c1.375,0,2.5-1.125,2.5-2.5V3.22c0-1.375-1.125-2.5-2.5-2.5H3.111c-1.375,0-2.5,1.125-2.5,2.5&#xD;&#xA;&#x9;v52.143c0,1.375,1.125,2.5,2.5,2.5H98.22z"/>
  <path fill="#FFFFFF" d="M0.611,19.763h21.144L0.611,7.665c0,0,0-3.676,0-4.444c0-1,0.578-2.5,2.109-2.5h9.988l29.577,16.81V0.72&#xD;&#xA;&#x9;h16.656v16.81L88.519,0.72c0,0,9.616,0,10.107,0c1.031,0,2.094,0.563,2.094,2.09c0,2.22,0,4.854,0,4.854L79.472,19.763h21.248&#xD;&#xA;&#x9;v19.056H79.472l21.248,12.097c0,0,0,2.391,0,4.447c0,1.495-0.715,2.5-2,2.5c-0.813,0-10.201,0-10.201,0L58.942,41.05v16.813H42.286&#xD;&#xA;&#x9;V41.05L12.708,57.863c0,0-9.327,0-9.863,0c-1.11,0-2.234-0.689-2.234-2.314c0-1.28,0-1.274,0-4.632l21.144-12.097H0.611V19.763z"/>
  <path fill="#E03A3E" d="M92.852,0.72L59.437,19.775h7.999L99.973,1.166c0,0-0.347-0.446-1.425-0.446&#xD;&#xA;&#x9;C97.548,0.72,92.852,0.72,92.852,0.72z"/>
  <path fill="#E03A3E" d="M99.974,57.417L67.4,38.818h8.034l25.286,14.504c0,0,0,1.294,0,2.54&#xD;&#xA;&#x9;C100.72,56.876,99.974,57.417,99.974,57.417z"/>
  <path fill="#E03A3E" d="M34.09,19.775L1.449,1.182c0,0-0.837,0.648-0.837,2.039c0,1.786,0,2.051,0,2.051l25.41,14.504H34.09z"/>
  <path fill="#E03A3E" d="M34.021,38.818L1.415,57.398c0,0,0.43,0.464,1.431,0.464c1.011,0,5.76,0,5.76,0L42.02,38.818H34.021z"/>
  <polygon fill="#E03A3E" points="0.611,23.715 45.834,23.715 45.834,0.72 55.621,0.72 55.621,23.715 100.72,23.715 100.72,34.875 &#xD;&#xA;&#x9;55.621,34.875 55.621,57.863 45.834,57.863 45.834,34.875 0.611,34.875 "/>
</svg>