<svg version="1.2" baseProfile="tiny" id="EdgeSVG_xl9BF" x="0px" y="0px" width="101.44px" height="58.583px" viewBox="0 0 101.44 58.583" xmlns:xlink="http://www.w3.org/1999/xlink" xmlns="http://www.w3.org/2000/svg">
  <linearGradient id="SVGID_1_" gradientUnits="userSpaceOnUse" x1="0" y1="29.2915" x2="101.4399" y2="29.2915">
    <stop offset="0" style="stop-color:#000000;stop-opacity:0.5"/>
    <stop offset="1" style="stop-color:#000000;stop-opacity:0.5"/>
  </linearGradient>
  <path fill="url(#SVGID_1_)" d="M2.72,58.583c-1.5,0-2.72-1.22-2.72-2.72V2.72C0,1.22,1.22,0,2.72,0h96c1.5,0,2.72,1.22,2.72,2.72&#xD;&#xA;&#x9;v53.143c0,1.5-1.22,2.72-2.72,2.72H2.72z"/>
  <path fill="#EC1C2E" d="M98.72,0.72h-96c-1.1,0-2,0.9-2,2v53.143c0,1.1,0.9,2,2,2h96c1.1,0,2-0.9,2-2V2.72&#xD;&#xA;&#x9;C100.72,1.62,99.82,0.72,98.72,0.72z"/>
  <rect x="0.72" y="10.244" fill="#FFFFFF" width="100" height="38.096"/>
  <rect x="0.72" y="19.768" fill="#00498F" width="100" height="19.048"/>
</svg>